<svg xmlns="http://www.w3.org/2000/svg" viewBox="0 0 1000 650" width="100%" height="100%">
  <defs>
    <style>
      /* Chameleon Theming Engine */
      :root {
        --bg-glass: rgba(0, 0, 0, 0.02);
        --border-glass: rgba(0, 0, 0, 0.15);
        --header-bg: rgba(0, 0, 0, 0.06);
        --text-main: rgba(0, 0, 0, 0.85);
        --text-muted: rgba(0, 0, 0, 0.5);
      }
      @media (prefers-color-scheme: dark) {
        :root {
          --bg-glass: rgba(255, 255, 255, 0.03);
          --border-glass: rgba(255, 255, 255, 0.12);
          --header-bg: rgba(255, 255, 255, 0.08);
          --text-main: rgba(255, 255, 255, 0.9);
          --text-muted: rgba(255, 255, 255, 0.5);
        }
      }

      /* Global Styles */
      .window-pane {
        fill: var(--bg-glass);
        stroke: var(--border-glass);
        stroke-width: 1.5px;
        rx: 10px; /* Rounded corners */
      }
      .window-header {
        fill: var(--header-bg);
      }
      
      /* Typography Stack - Uses native system monospace for GitHub compatibility */
      text {
        font-family: 'JetBrains Mono', 'Fira Code', 'SF Mono', Consolas, 'Courier New', monospace;
      }
      .title-text {
        font-size: 13px;
        fill: var(--text-muted);
        font-weight: 600;
        letter-spacing: 0.5px;
      }
      .body-text {
        font-size: 14px;
        fill: var(--text-main);
      }
    </style>

    <g id="window-controls">
      <circle cx="15" cy="15" r="6" fill="#ff5f56" />
      <circle cx="35" cy="15" r="6" fill="#ffbd2e" />
      <circle cx="55" cy="15" r="6" fill="#27c93f" />
    </g>
  </defs>

  <g id="window1-identity" transform="translate(20, 20)">
    <rect class="window-pane" width="960" height="120" />
    <path class="window-header" d="M10 0 h940 a10 10 0 0 1 10 10 v20 h-960 v-20 a10 10 0 0 1 10 -10 z" />
    <use href="#window-controls" />
    <text x="480" y="20" class="title-text" text-anchor="middle">root@mahdavi:~</text>
    
    <g id="inject-identity" transform="translate(25, 65)">
      
    <text x="10" y="0" class="body-text" font-weight="bold" fill="#81A1C1">root@wahid:~$<tspan dx="10" fill="#ECEFF4">./whoami --full-profile</tspan></text>
    
    <g transform="translate(10, 25)">
        <text y="0" class="body-text">
            <tspan fill="#4C566A">NAME_ </tspan>
            <tspan fill="#ECEFF4" font-weight="bold">Wahid Alawy</tspan>
        </text>
        <text y="22" class="body-text">
            <tspan fill="#4C566A">ROLE_ </tspan>
            <tspan fill="#B48EAD">Network &amp; Software Engineer</tspan>
        </text>
    </g>

    <g transform="translate(400, 25)">
        <text y="0" class="body-text">
            <tspan fill="#4C566A">LOC_  </tspan>
            <tspan fill="#ECEFF4">Qom, Iran</tspan>
        </text>
        <text y="22" class="body-text">
            <tspan fill="#4C566A">STAT_ </tspan>
            <tspan fill="#A3BE8C">[ OK ] Root Access Granted</tspan>
        </text>
    </g>
    
    </g>
  </g>

  <g id="window2-infra" transform="translate(20, 160)">
    <rect class="window-pane" width="300" height="470" />
    <path class="window-header" d="M10 0 h280 a10 10 0 0 1 10 10 v20 h-300 v-20 a10 10 0 0 1 10 -10 z" />
    <use href="#window-controls" />
    <text x="150" y="20" class="title-text" text-anchor="middle">sys_infra.sh</text>
    
    <g id="inject-infra" transform="translate(20, 60)">
      
    <text x="10" y="0" class="body-text" fill="#81A1C1" font-weight="bold">[+] HYPERVISORS &amp; OPS</text>
    
    <text x="10" y="25" class="body-text" fill="#4C566A">├── <tspan fill="#D8DEE9">VMware ESXi</tspan></text>
    <text x="10" y="50" class="body-text" fill="#4C566A">├── <tspan fill="#D8DEE9">ProLiant DL380/DL360 Gen9</tspan></text>
    <text x="10" y="75" class="body-text" fill="#4C566A">├── <tspan fill="#D8DEE9">Docker Containers</tspan></text>
    <text x="10" y="100" class="body-text" fill="#4C566A">└── <tspan fill="#D8DEE9">Ubuntu 24.04 LTS</tspan></text>

    <text x="10" y="145" class="body-text" fill="#81A1C1" font-weight="bold">[+] LANGUAGES &amp; STACK</text>
    
    <text x="10" y="170" class="body-text" fill="#4C566A">├── <tspan fill="#EBCB8B">[Low-Level]</tspan> <tspan fill="#D8DEE9">C / C++ / Rust</tspan></text>
    <text x="10" y="195" class="body-text" fill="#4C566A">├── <tspan fill="#A3BE8C">[Backend]  </tspan> <tspan fill="#D8DEE9">Python / PHP</tspan></text>
    <text x="10" y="220" class="body-text" fill="#4C566A">└── <tspan fill="#B48EAD">[Frontend] </tspan> <tspan fill="#D8DEE9">React / Next.js</tspan></text>
    
    <rect x="0" y="360" width="260" height="30" rx="4" fill="rgba(163, 190, 140, 0.1)" stroke="#A3BE8C" stroke-width="1"/>
    <text x="130" y="380" class="body-text" fill="#A3BE8C" font-size="12px" text-anchor="middle">● All Infrastructure Operational</text>
    
    </g>
  </g>

  <g id="window3-processes" transform="translate(340, 160)">
    <rect class="window-pane" width="320" height="470" />
    <path class="window-header" d="M10 0 h300 a10 10 0 0 1 10 10 v20 h-320 v-20 a10 10 0 0 1 10 -10 z" />
    <use href="#window-controls" />
    <text x="160" y="20" class="title-text" text-anchor="middle">htop -u root</text>
    
    <g id="inject-processes" transform="translate(20, 60)">
      
    <text x="5" y="0" class="body-text" font-weight="bold" fill="#4C566A">
        <tspan x="5">PID</tspan>
        <tspan x="40">USER</tspan>
        <tspan x="80">MEM%</tspan>
        <tspan x="125">COMMAND</tspan>
    </text>
    
    <text y="30" class="body-text">
        <tspan x="5" fill="#B48EAD">1042</tspan>
        <tspan x="40" fill="#81A1C1">root</tspan>
        <tspan x="80" fill="#A3BE8C">14.2</tspan>
        <tspan x="125" fill="#ECEFF4">./osint_core --extract</tspan>
    </text>
    
    <text y="60" class="body-text">
        <tspan x="5" fill="#B48EAD">2099</tspan>
        <tspan x="40" fill="#81A1C1">root</tspan>
        <tspan x="80" fill="#A3BE8C">28.5</tspan>
        <tspan x="125" fill="#ECEFF4">kian_ad_infra --sync</tspan>
    </text>
    
    <text y="90" class="body-text">
        <tspan x="5" fill="#B48EAD">3401</tspan>
        <tspan x="40" fill="#81A1C1">root</tspan>
        <tspan x="80" fill="#A3BE8C">08.1</tspan>
        <tspan x="125" fill="#ECEFF4">python bs4_scraper.py</tspan>
    </text>
    
    <text y="120" class="body-text">
        <tspan x="5" fill="#B48EAD">8832</tspan>
        <tspan x="40" fill="#81A1C1">root</tspan>
        <tspan x="80" fill="#A3BE8C">02.4</tspan>
        <tspan x="125" fill="#ECEFF4">win_handle_io.exe</tspan>
    </text>

    <text y="150" class="body-text">
        <tspan x="5" fill="#B48EAD">9014</tspan>
        <tspan x="40" fill="#81A1C1">root</tspan>
        <tspan x="80" fill="#A3BE8C">32.8</tspan>
        <tspan x="125" fill="#ECEFF4">note_watcher_pipeline</tspan>
    </text>

    <path d="M 5 185 L 265 185" stroke="#4C566A" stroke-width="1" stroke-dasharray="4 4"/>
    
    <text x="5" y="210" class="body-text" fill="#EBCB8B" font-size="12px">
        [SYS] DB Control Plane: PostgreSQL
    </text>
    
    </g>
  </g>

  <g id="window4-stats" transform="translate(680, 160)">
    <rect class="window-pane" width="300" height="225" />
    <path class="window-header" d="M10 0 h280 a10 10 0 0 1 10 10 v20 h-300 v-20 a10 10 0 0 1 10 -10 z" />
    <use href="#window-controls" />
    <text x="150" y="20" class="title-text" text-anchor="middle">metrics_daemon</text>
    
    <g id="inject-stats" transform="translate(20, 60)">
      
    <text x="5" y="0" class="body-text" font-weight="bold" fill="#4C566A">[+] TELEMETRY DAEMON v2.0</text>
    
    <text y="25" class="body-text">
        <tspan x="5" fill="#81A1C1">TOTAL_COMMITS_ </tspan>
        <tspan fill="#A3BE8C" font-weight="bold">21</tspan>
    </text>

    <text y="45" class="body-text">
        <tspan x="5" fill="#81A1C1">SYS_ACTIVITY_  </tspan>
        <tspan fill="#A3BE8C">Optimal</tspan>
    </text>

    <path d="M 5 75 L 255 75" stroke="#4C566A" stroke-width="0.5" stroke-dasharray="2 2"/>
    <path d="M 5 95 L 255 95" stroke="#4C566A" stroke-width="0.5" stroke-dasharray="2 2"/>
    <path d="M 5 115 L 255 115" stroke="#4C566A" stroke-width="0.5" stroke-dasharray="2 2"/>
    
    <text x="5" y="140" class="body-text" font-size="10px" fill="#4C566A">[ Live Traffic Pulse ]</text>

    <g transform="translate(5, 75)">
        <path d="M 0,35.0 L 5,35.0 L 10,32.6 L 15,30.0 L 20,28.7 L 25,29.1 L 30,29.7 L 35,28.7 L 40,25.3 L 45,20.2 L 50,15.4 L 55,12.5 L 60,11.8 L 65,12.3 L 70,12.0 L 75,10.1 L 80,6.9 L 85,5.0 L 90,5.0 L 95,6.3 L 100,10.1 L 105,13.5 L 110,15.1 L 115,15.2 L 120,15.4 L 125,17.3 L 130,21.3 L 135,26.4 L 140,30.5 L 145,32.3 L 150,31.8 L 155,30.5 L 160,30.2 L 165,31.5 L 170,33.7 L 175,34.7 L 180,33.3 L 185,29.5 L 190,24.9 L 195,21.2 L 200,19.7 L 205,19.5 L 210,19.0 L 215,16.7 L 220,12.6 L 225,8.2 L 230,5.3 L 235,5.1 L 240,6.9 L 245,9.2 L 250,10.2" fill="none" stroke="#B48EAD" stroke-width="2" style="filter: drop-shadow(0px 0px 4px rgba(180, 142, 173, 0.5));"/>
    </g>
    
    </g>
  </g>

  <g id="window5-protocols" transform="translate(680, 405)">
    <rect class="window-pane" width="300" height="225" />
    <path class="window-header" d="M10 0 h280 a10 10 0 0 1 10 10 v20 h-300 v-20 a10 10 0 0 1 10 -10 z" />
    <use href="#window-controls" />
    <text x="150" y="20" class="title-text" text-anchor="middle">netstat -tuln</text>
    
    <g id="inject-protocols" transform="translate(20, 60)">
      
    <text x="5" y="0" class="body-text" font-size="12px" font-weight="bold" fill="#4C566A">
        <tspan x="5">PROT</tspan>
        <tspan x="35">PORT</tspan>
        <tspan x="70">STATE</tspan>
        <tspan x="155">SERVICE</tspan>
    </text>
    
    <text y="20" class="body-text" font-size="12px">
        <tspan x="5" fill="#81A1C1">tcp</tspan>
        <tspan x="35" fill="#B48EAD">443</tspan>
        <tspan x="70" fill="#A3BE8C">ESTABLISHED</tspan>
        <tspan x="155" fill="#ECEFF4">t.me/WahidAlawy</tspan> 
    </text>
    
    <text y="40" class="body-text" font-size="12px">
        <tspan x="5" fill="#81A1C1">tcp</tspan>
        <tspan x="35" fill="#B48EAD">25</tspan>
        <tspan x="70" fill="#A3BE8C">LISTENING</tspan>
        <tspan x="155" fill="#ECEFF4">mail@domain</tspan>
    </text>
    
    <text y="60" class="body-text" font-size="12px">
        <tspan x="5" fill="#81A1C1">udp</tspan>
        <tspan x="35" fill="#B48EAD">5060</tspan>
        <tspan x="70" fill="#A3BE8C">CALIBRATED</tspan>
        <tspan x="155" fill="#ECEFF4">Social Dynamics</tspan>
    </text>
    
    <text y="80" class="body-text" font-size="12px">
        <tspan x="5" fill="#81A1C1">tcp</tspan>
        <tspan x="35" fill="#B48EAD">22</tspan>
        <tspan x="70" fill="#A3BE8C">ESTABLISHED</tspan>
        <tspan x="155" fill="#ECEFF4">Rapport</tspan>
    </text>

    <path d="M 5 105 L 265 105" stroke="#4C566A" stroke-width="1" stroke-dasharray="2 2"/>
    <text y="125" class="body-text" font-size="11px" fill="#4C566A">
        <tspan x="5">[NET] Distributed Routing:</tspan>
    </text>
    <text y="140" class="body-text" font-size="11px" fill="#81A1C1">
        <tspan x="5">Srv 02 (IR) &lt;━━━&gt; Srv 06/09 (EXT)</tspan>
    </text>
    
    </g>
  </g>

</svg>
